<svg width="26" height="27" viewBox="0 0 26 27" fill="none" xmlns="http://www.w3.org/2000/svg">
<path d="M18.1666 9.62492V7.04159H12.9999V14.1458C12.4574 13.7453 11.7987 13.4999 11.0624 13.4999C10.206 13.4999 9.38464 13.8401 8.77905 14.4457C8.17347 15.0513 7.83325 15.8727 7.83325 16.7291C7.83325 17.5855 8.17347 18.4069 8.77905 19.0125C9.38464 19.618 10.206 19.9583 11.0624 19.9583C11.9188 19.9583 12.7402 19.618 13.3458 19.0125C13.9514 18.4069 14.2916 17.5855 14.2916 16.7291V9.62492H18.1666ZM12.9999 0.583252C14.6962 0.583252 16.3758 0.917351 17.9429 1.56647C19.51 2.2156 20.934 3.16703 22.1334 4.36646C23.3328 5.56588 24.2842 6.9898 24.9334 8.55692C25.5825 10.124 25.9166 11.8037 25.9166 13.4999C25.9166 16.9256 24.5557 20.211 22.1334 22.6334C19.711 25.0557 16.4256 26.4166 12.9999 26.4166C11.3037 26.4166 9.62405 26.0825 8.05692 25.4334C6.4898 24.7842 5.06588 23.8328 3.86646 22.6334C1.44411 20.211 0.083252 16.9256 0.083252 13.4999C0.083252 10.0742 1.44411 6.7888 3.86646 4.36646C6.2888 1.94411 9.57421 0.583252 12.9999 0.583252Z" fill="#FFFDD0"/>
</svg>
